<svg width="45" height="45" viewBox="0 0 45 45" fill="none" xmlns="http://www.w3.org/2000/svg">
<circle cx="22.5" cy="22.5" r="22.5" fill="#58BEBF" fill-opacity="0.2"/>
<path fill-rule="evenodd" clip-rule="evenodd" d="M19.6024 33.7964V29.5415H25.875V33.7964H30.6021V10.8781H14.8746V33.7964H19.6024ZM25.875 12.9835H28.5206V15.6584H25.875V12.9835ZM28.5206 16.8722H25.875V19.5479H28.5206V16.8722ZM25.875 20.7616H28.5206V23.4359H25.875V20.7616ZM28.5206 24.6496H25.875V27.3261H28.5206V24.6496ZM21.4163 12.9835H24.0626V15.6584H21.4163V12.9835ZM24.0626 16.8722H21.4163V19.5479H24.0626V16.8722ZM21.4163 20.7616H24.0626V23.4359H21.4163V20.7616ZM24.0626 24.6496H21.4163V27.3261H24.0626V24.6496ZM16.9576 12.9835H19.6032V15.6584H16.9576V12.9835ZM19.6032 16.8722H16.9576V19.5479H19.6032V16.8722ZM16.9576 20.7616H19.6032V23.4359H16.9576V20.7616ZM19.6032 24.6496H16.9576V27.3261H19.6032V24.6496Z" fill="#58BEBF"/>
</svg>
